<?xml version="1.0" encoding="utf-8"?>
<svg viewBox="0 0 500 500" xmlns="http://www.w3.org/2000/svg">
  <path style="fill: rgb(216, 216, 216); stroke-width: 11; stroke: rgb(150, 150, 150);" d="M 40.642 154.798 L 121.846 274.27 L 40.642 154.798 Z"/>
  <ellipse transform="matrix(-0.707107, 0.707107, -0.707109, -0.707105, 211.191907, 197.143326)" cx="91.314" cy="155.161" rx="28.221" ry="28.221" style="fill: rgb(63, 81, 181);"/>
  <path style="fill: rgb(216, 216, 216); stroke-width: 11; stroke: rgb(150, 150, 150);" d="M 186.715 151.997 L 126.045 270.535 L 186.715 151.997 Z"/>
  <ellipse transform="matrix(-0.707107, 0.707106, -0.707106, -0.707107, 426.018266, 140.534905)" cx="177.978" cy="163.088" rx="23.993" ry="23.993" style="fill: rgb(63, 81, 181);"/>
  <path style="fill: rgb(216, 216, 216); stroke-width: 11; stroke: rgb(150, 150, 150);" d="M 122.312 276.137 L 308.055 346.14 L 122.312 276.137 Z"/>
  <ellipse transform="matrix(-0.707107, 0.707107, -0.707108, -0.707107, 322.038022, 351.169191)" cx="88.832" cy="197.582" rx="52.622" ry="52.622" style="fill: rgb(136, 176, 216);"/>
  <path style="fill: rgb(216, 216, 216); stroke-width: 11; stroke: rgb(150, 150, 150);" d="M 405.126 185.599 L 312.723 346.139 L 405.126 185.599 Z"/>
  <ellipse transform="matrix(-0.707106, 0.707107, -0.707107, -0.707107, 784.279729, 63.649825)" cx="353.672" cy="177.251" rx="65.012" ry="65.013" style="fill: rgb(33, 150, 243);"/>
  <ellipse transform="matrix(-0.707105, 0.707109, -0.707107, -0.707106, 703.394832, 354.321369)" cx="272.112" cy="285.002" rx="39.15" ry="39.15" style="fill: rgb(63, 81, 181);"/>
  <path style="fill: rgb(216, 216, 216); stroke: rgb(0, 0, 0);" d="M 242.812 220.447"/>
</svg>