<?xml version="1.0" encoding="utf-8"?>
<svg viewBox="0 0 500 500" xmlns="http://www.w3.org/2000/svg">
  <text x="131.697" y="226.622" transform="matrix(1.155893, -0.008355, 0, 1.350388, -49.12212, -71.803314)" style="fill: rgb(63, 81, 181); font-family: sans-serif; font-size: 54.1px; white-space: pre;">Datawheel</text>
  <text x="159.917" y="177.021" transform="matrix(1.155893, -0.008355, 0, 1.350391, -49.122181, -71.80365)" style="fill: rgb(63, 81, 181); font-family: sans-serif; font-size: 26px; white-space: pre;">Tesseract</text>
  <text x="278.958" y="376.219" transform="matrix(1.25143, -0.009046, 0, 1.462, -140.220306, -203.262573)" style="fill: rgb(33, 150, 243); font-family: sans-serif; font-size: 32.5px; white-space: pre;">Data</text>
  <text x="117.694" y="269.352" transform="matrix(1.251429, -0.009045, 0, 1.461999, -20.455967, -114.738853)" style="fill: rgb(33, 150, 243); font-family: sans-serif; font-size: 24px; white-space: pre;">Science</text>
  <text x="302.41" y="166.61" transform="matrix(1.04021, -0.007519, 0, 1.215242, -15.742259, -43.552822)" style="fill: rgb(33, 150, 243); font-family: sans-serif; font-size: 28.9px; white-space: pre;">MIT</text>
  <text x="143.45" y="347.61" transform="matrix(1.04021, -0.007519, 0, 1.21524, -45.123585, -58.960125)" style="fill: rgb(136, 176, 216); font-family: sans-serif; font-size: 33.9px; white-space: pre;">UdeC</text>
  <text x="14.429" y="212.054" transform="matrix(1.251429, -0.009046, 0, 1.49816, -14.792823, 2.787493)" style="fill: rgb(63, 81, 181); font-family: sans-serif; font-size: 19.1px; white-space: pre;">Computer Sciente</text>
  <text x="378.357" y="247.235" transform="matrix(1.251429, -0.009046, 0, 1.49816, -226.061951, -71.158081)" style="fill: rgb(136, 176, 216); font-family: sans-serif; font-size: 24px; white-space: pre;">Medical Science</text>
  <text x="312.861" y="316.755" transform="matrix(1.04021, -0.007519, 0, 1.215242, -15.742259, -43.552822)" style="fill: rgb(63, 81, 181); font-family: sans-serif; font-size: 28.9px; white-space: pre;">Innovation</text>
  <text x="230.893" y="334.247" transform="matrix(1.155893, -0.008355, 0, 1.350388, -49.122147, -71.80278)" style="fill: rgb(63, 81, 181); font-family: sans-serif; font-size: 18.4px; white-space: pre;">Machine Learning</text>
  <text x="157.353" y="148.801" transform="matrix(1.155893, -0.008355, 0, 1.350388, -49.122147, -71.803345)" style="fill: rgb(136, 176, 216); font-family: sans-serif; font-size: 26px; white-space: pre;">Media Lab</text>
  <text x="56.771" y="181.788" transform="matrix(1.251429, -0.009046, 0, 1.462002, -11.14292, 11.375135)" style="fill: rgb(136, 176, 216); font-family: sans-serif; font-size: 18.4px; white-space: pre;">Chile</text>
  <text x="68.414" y="231.752" transform="matrix(1.155893, -0.008355, 0, 1.350391, -49.122154, -71.803665)" style="fill: rgb(63, 81, 181); font-family: sans-serif; font-size: 26px; white-space: pre;">USA</text>
  <text x="57.238" y="172.312" transform="matrix(1.04021, -0.007519, 0, 1.215242, -15.742259, -43.552822)" style="fill: rgb(33, 150, 243); font-family: sans-serif; font-size: 28.9px; white-space: pre;">Africa</text>
  <text x="412.642" y="237.88" transform="matrix(1.04021, -0.007519, 0, 1.245299, -16.532148, -53.351109)" style="fill: rgb(63, 81, 181); font-family: sans-serif; font-size: 28.9px; white-space: pre;">Korea</text>
  <text x="64.433" y="200.761" transform="matrix(1.155893, -0.008355, 0, 1.350391, -49.122169, -71.803772)" style="fill: rgb(136, 176, 216); font-family: sans-serif; font-size: 18.3px; white-space: pre;">React</text>
</svg>