<?xml version="1.0" encoding="utf-8"?>
<svg viewBox="0 0 500 500" xmlns="http://www.w3.org/2000/svg" xmlns:bx="https://boxy-svg.com">
  <path transform="matrix(-0.707107, 0.707107, -0.707107, -0.707107, 352.511457, 246.152326)" d="M 78 72 m -229.922 0 a 229.922 229.922 0 1 0 459.844 0 a 229.922 229.922 0 1 0 -459.844 0 Z M 78 72 m -137.953 0 a 137.953 137.953 0 0 1 275.906 0 a 137.953 137.953 0 0 1 -275.906 0 Z" style="fill: rgb(33, 150, 243);" bx:shape="ring 78 72 137.953 137.953 229.922 229.922 1@3e1e0987"/>
  <path style="fill: rgb(63, 81, 181);" d="M 251.185 20.537 C 251.185 20.537 257.68 19.34 251.186 259.083 L 397.315 422.59 C 538.756 307.227 488.47 26.763 251.185 20.537 Z"/>
  <path d="M 248.025 263.823 C 288.753 305.391 398.104 423.38 398.104 423.38 C 350.49 465.529 274.221 498.825 179.305 470.774 L 248.025 263.823 Z" style="fill: rgb(136, 176, 216);"/>
  <path style="fill: rgb(216, 216, 216); stroke: rgb(0, 0, 0);" d="M 278.131 390.266"/>
  <line style="fill: rgb(255, 255, 255); stroke: rgb(255, 255, 255); stroke-width: 7;" x1="248.728" y1="256.354" x2="397.984" y2="423.51"/>
  <line style="fill: rgb(255, 255, 255); stroke: rgb(255, 255, 255); stroke-width: 7;" x1="248.074" y1="260.093" x2="178.836" y2="471.845"/>
  <line style="fill: rgb(255, 255, 255); stroke: rgb(255, 255, 255); stroke-width: 7;" x1="252.48" y1="17.024" x2="249.815" y2="262.599"/>
  <path style="fill: rgb(33, 150, 243);" d="M 248.815 21.327 L 247.235 253.554 L 175.355 469.984 L 75.829 296.998 L 116.904 144.55 L 248.815 21.327 Z"/>
  <path style="fill: rgb(216, 216, 216); stroke: rgb(0, 0, 0);"/>
</svg>