<?xml version="1.0" encoding="utf-8"?>
<svg viewBox="0 0 500 500" xmlns="http://www.w3.org/2000/svg" xmlns:bx="https://boxy-svg.com">
  <path transform="matrix(-0.707107, 0.707107, -0.707107, -0.707107, 350.931501, 242.202873)" d="M 78 72 m -229.922 0 a 229.922 229.922 0 1 0 459.844 0 a 229.922 229.922 0 1 0 -459.844 0 Z M 78 72 m -137.953 0 a 137.953 137.953 0 0 1 275.906 0 a 137.953 137.953 0 0 1 -275.906 0 Z" style="fill: rgb(33, 150, 243);" bx:shape="ring 78 72 137.953 137.953 229.922 229.922 1@3e1e0987"/>
  <path style="fill: rgb(63, 81, 181);" d="M 249.605 16.588 L 248.025 108.215 C 406.05 122.49 408.548 297.381 331.754 353.87 L 395.735 418.641 C 537.176 303.278 486.89 22.814 249.605 16.588 Z"/>
  <path d="M 332.191 353.518 L 396.524 419.431 C 348.91 461.58 272.641 494.876 177.725 466.825 L 206.161 379.147 C 257.947 388.33 285.7 384.639 332.191 353.518 Z" style="fill: rgb(136, 176, 216);"/>
  <path style="fill: rgb(216, 216, 216); stroke: rgb(0, 0, 0);" d="M 276.551 386.317"/>
  <line style="fill: rgb(255, 255, 255); stroke: rgb(255, 255, 255); stroke-width: 7;" x1="331.6658935546875" y1="353.51025390625" x2="396.4042053222656" y2="419.56085205078125"/>
  <line style="fill: rgb(255, 255, 255); stroke: rgb(255, 255, 255); stroke-width: 7;" x1="186.004" y1="363.133" x2="156.26" y2="453.242" transform="matrix(0.9999999999999999, 0, 0, 0.9999999999999999, 20.996214610329716, 14.653608113459285)"/>
  <line style="fill: rgb(255, 255, 255); stroke: rgb(255, 255, 255); stroke-width: 7;" x1="335.316" y1="219.371" x2="333.441" y2="316.447" transform="matrix(1, 0, 0, 1, -84.41587171948987, -206.29647506639392)"/>
</svg>