<?xml version="1.0" encoding="utf-8"?>
<svg viewBox="0 0 500 500" xmlns="http://www.w3.org/2000/svg">
  <ellipse transform="matrix(-0.707108, 0.707106, -0.707106, -0.707108, 451.995096, 189.471945)" cx="155.187" cy="173.709" rx="25.029" ry="25.03" style="fill: rgb(33, 150, 243);"/>
  <ellipse transform="matrix(-0.707108, 0.707106, -0.707108, -0.707106, 846.264558, 368.934054)" cx="445.396" cy="443.19" rx="35.983" ry="35.983" style="fill: rgb(33, 150, 243);"/>
  <ellipse transform="matrix(-0.707107, 0.707108, -0.707107, -0.707107, 923.186068, 114.94765)" cx="572.625" cy="345.026" rx="32.866" ry="32.866" style="fill: rgb(63, 81, 181);"/>
  <ellipse transform="matrix(-0.707106, 0.707109, -0.707103, -0.707109, 2012.184792, 41.051114)" cx="1398.16" cy="931.151" rx="19.537" ry="19.537" style="fill: rgb(33, 150, 243);"/>
  <ellipse transform="matrix(-0.707107, 0.707105, -0.707107, -0.707106, 618.025235, 81.04452)" cx="472.91" cy="216.948" rx="53.158" ry="53.158" style="fill: rgb(136, 176, 216);"/>
  <ellipse transform="matrix(-0.707109, 0.707105, -0.707103, -0.70711, 843.833949, 447.157706)" cx="203.357" cy="463.091" rx="17.299" ry="17.299" style="fill: rgb(136, 176, 216);"/>
  <ellipse transform="matrix(-0.707108, 0.707106, -0.707107, -0.707107, 676.612197, 545.473907)" cx="306.139" cy="499.551" rx="35.107" ry="35.107" style="fill: rgb(63, 81, 181);"/>
  <ellipse transform="matrix(-0.707106, 0.707108, -0.707109, -0.707106, 1973.099789, 339.243175)" cx="962.425" cy="1288.107" rx="55.551" ry="55.551" style="fill: rgb(136, 176, 216);"/>
  <ellipse transform="matrix(-0.707107, 0.707107, -0.707108, -0.707105, 858.744381, -15.55167)" cx="542.331" cy="408.814" rx="36.025" ry="36.025" style="fill: rgb(63, 81, 181);"/>
  <ellipse transform="matrix(-0.707106, 0.707111, -0.707105, -0.707108, 1126.209065, -286.34554)" cx="915.457" cy="256.328" rx="24.768" ry="24.768" style="fill: rgb(63, 81, 181);"/>
  <rect x="21.327" y="18.167" width="10.268" height="451.817" style="fill: rgb(63, 81, 181);"/>
  <rect x="21.3" y="465.379" width="446.315" height="10.269" style="fill: rgb(63, 81, 181);"/>
</svg>