<svg xmlns="http://www.w3.org/2000/svg" viewBox="0 0 156 36">
  <g fill="none" fill-rule="evenodd">
    <path fill="#E4E6EA" d="M10.57 10.45l10.07 25.42H.5M33.9.82l9.35 35.05H23.1"/>
    <path fill="#CCD0D7" fill-opacity=".4" d="M33.9.82l4.8 31.48H15.06"/>
    <g fill-opacity=".8">
      <path fill="#3065C4" d="M13.1 16.47h11.43l-4.2 19.43H9"/>
      <path fill="#E80C3B" d="M24.52 16.47h11.65L32.03 35.9h-11.7"/>
    </g>
    <path fill="#FFF" d="M59.1 28.08V12.34h4.84c2.08 0 3.74.63 5 1.9 1.24 1.26 1.87 2.9 1.87 4.9v2.15c0 2-.6 3.6-1.8 4.9-1.2 1.2-2.9 1.8-5 1.8h-4.9zm2.13-14.06v12.4h2.7c1.48 0 2.63-.5 3.47-1.44.85-.96 1.27-2.2 1.27-3.7v-2.16c0-1.5-.42-2.7-1.27-3.67-.84-.96-2-1.43-3.46-1.43h-2.7zm19.33 14.06l-.16-.94c-.04-.27-.07-.54-.08-.8-.4.55-.9 1.02-1.55 1.4-.64.38-1.33.56-2.07.56-1.23 0-2.16-.3-2.8-.93-.64-.62-.96-1.48-.96-2.58 0-1.2.45-2 1.36-2.7.9-.7 2.14-1 3.7-1h2.32V20c0-.7-.2-1.22-.63-1.62-.5-.4-1.1-.6-1.8-.6s-1.3.17-1.7.52c-.5.35-.7.77-.7 1.26h-2v-.07c-.1-.9.3-1.7 1.2-2.4S76.6 16 78 16c1.3 0 2.4.33 3.2 1 .8.7 1.2 1.65 1.2 2.92v5.6c0 .4 0 .8.1 1.2 0 .4.1.77.2 1.15h-2.2zM77 26.52c.8 0 1.5-.2 2.1-.6.63-.4 1.04-.84 1.22-1.36v-1.9h-2.4c-.86 0-1.55.22-2.06.65-.52.5-.78 1-.78 1.6 0 .5.16 1 .5 1.3.3.3.8.5 1.43.5zm11.4-12.96v2.82h2.22v1.58H88.4v7.1c0 .55.1.94.34 1.16.23.22.53.33.9.33.13 0 .26 0 .4-.04.16 0 .3 0 .4-.1l.3 1.5c-.17.2-.4.3-.7.3-.32.1-.63.1-.94.1-.87 0-1.56-.2-2.07-.7-.52-.5-.77-1.3-.77-2.4V18H84.4v-1.6h1.86v-2.83h2.14zm12.1 14.52c-.1-.36-.14-.67-.18-.94-.04-.27-.07-.54-.07-.8-.4.55-.92 1.02-1.56 1.4-.7.38-1.4.56-2.1.56-1.3 0-2.2-.3-2.8-.93-.7-.62-1-1.48-1-2.58 0-1.2.4-2 1.3-2.7.9-.7 2.1-1 3.7-1h2.3V20c0-.7-.2-1.22-.7-1.62-.4-.4-1-.6-1.8-.6-.7 0-1.2.17-1.7.52-.43.35-.65.77-.65 1.26h-2l-.04-.07c-.04-.9.37-1.7 1.2-2.4.87-.7 1.97-1.1 3.3-1.1 1.35 0 2.4.3 3.23 1 .8.7 1.2 1.6 1.2 2.9v5.6c0 .4 0 .8.02 1.2.02.4.1.7.22 1.1h-2.2zm-3.57-1.56c.78 0 1.48-.2 2.1-.6.62-.4 1.03-.84 1.22-1.36v-1.9h-2.4c-.87 0-1.56.22-2.07.65-.52.5-.78 1-.78 1.6 0 .5.16 1 .5 1.3.3.3.8.5 1.43.5zm22.64-3.8l.02.07c0 1.7-.5 3-1.6 4s-2.6 1.5-4.5 1.5-3.5-.6-4.7-1.9c-1.2-1.2-1.8-2.8-1.8-4.7v-3.1c0-1.9.5-3.5 1.7-4.7 1.1-1.2 2.6-1.9 4.5-1.9s3.5.5 4.6 1.5 1.6 2.3 1.6 4.1h-3.1c0-1.1-.3-1.9-.8-2.4-.5-.6-1.3-.8-2.3-.8-1 0-1.7.3-2.3 1.1-.57.7-.85 1.7-.85 2.9v3.1c0 1.2.3 2.2.9 2.97.6.77 1.37 1.15 2.37 1.15s1.72-.2 2.2-.8c.46-.5.7-1.3.7-2.3h3.1zm5.1-4.86c.38-.53.83-.95 1.37-1.24.53-.3 1.13-.45 1.78-.45 1.22 0 2.2.4 2.88 1.2.7.82 1.05 2.08 1.05 3.77v6.94h-3.17v-6.96c0-.9-.16-1.55-.48-1.93-.32-.4-.8-.6-1.44-.6-.44 0-.82.1-1.15.2-.3.1-.6.4-.8.6V28h-3.1V11.2h3.2v6.64zm12.8 10.22h-3.16v-11.7h3.2v11.7zm0-14.5h-3.16v-2.36h3.2v2.36zm5.95 14.5h-3.17V11.22h3.17v16.86zm7.8.22c-1.7 0-3.04-.54-4.05-1.62-1.02-1.08-1.52-2.45-1.52-4.1v-.45c0-1.73.48-3.16 1.43-4.3.96-1.1 2.25-1.67 3.87-1.66 1.58 0 2.8.47 3.7 1.42.87.9 1.3 2.2 1.3 3.8v1.7h-7.04c.1.7.4 1.4.8 1.9s1.1.7 1.9.7c.7 0 1.3-.1 1.8-.2s1-.4 1.6-.7l.9 1.9c-.5.4-1.1.7-1.9.94-.7.25-1.6.4-2.5.4zm-.27-9.7c-.6 0-1.05.22-1.4.67-.33.45-.54 1.03-.62 1.76l.03.05h3.9v-.28c0-.67-.17-1.2-.5-1.6-.3-.4-.78-.6-1.4-.6z"/>
  </g>
</svg>